<mxfile host="app.diagrams.net" modified="2023-10-11T19:03:41.101Z" agent="Mozilla/5.0 (Windows NT 10.0; Win64; x64) AppleWebKit/537.36 (KHTML, like Gecko) Chrome/118.0.0.0 Safari/537.36" etag="t1r8XvET6f7DCXRZ49vk" version="22.0.4" type="github">
  <diagram name="Page-1" id="FrYp0aKRIXscTClVMfUD">
    <mxGraphModel dx="2097" dy="1759" grid="1" gridSize="10" guides="1" tooltips="1" connect="1" arrows="1" fold="1" page="1" pageScale="1" pageWidth="850" pageHeight="1100" math="0" shadow="0">
      <root>
        <mxCell id="0" />
        <mxCell id="1" parent="0" />
        <mxCell id="We_xGAvE_2kOFByAN-qr-1" value="&lt;div style=&quot;text-align: left;&quot;&gt;&lt;span style=&quot;background-color: initial;&quot;&gt;Project Functionalities&lt;/span&gt;&lt;/div&gt;&lt;div style=&quot;text-align: left;&quot;&gt;&lt;span style=&quot;background-color: initial;&quot;&gt;1. Login&lt;/span&gt;&lt;/div&gt;&lt;div style=&quot;text-align: left;&quot;&gt;&lt;span style=&quot;background-color: initial;&quot;&gt;2. Add/Associate Transaction Categories&lt;/span&gt;&lt;/div&gt;&lt;div style=&quot;text-align: left;&quot;&gt;&lt;span style=&quot;background-color: initial;&quot;&gt;3. Add Monthly Budget for each Transaction Category&lt;/span&gt;&lt;/div&gt;&lt;div style=&quot;text-align: left;&quot;&gt;&lt;span style=&quot;background-color: initial;&quot;&gt;4. Add Individual Transactions&lt;/span&gt;&lt;/div&gt;&lt;div style=&quot;text-align: left;&quot;&gt;&lt;span style=&quot;background-color: initial;&quot;&gt;5. Add Reoccurring Monthly Charges&amp;nbsp;&lt;/span&gt;&lt;/div&gt;&lt;div style=&quot;text-align: left;&quot;&gt;&lt;span style=&quot;background-color: initial;&quot;&gt;6. Import statements&lt;/span&gt;&lt;/div&gt;&lt;div style=&quot;text-align: left;&quot;&gt;&lt;span style=&quot;background-color: initial;&quot;&gt;7. View past and future months&lt;/span&gt;&lt;/div&gt;&lt;div style=&quot;text-align: left;&quot;&gt;&lt;span style=&quot;background-color: initial;&quot;&gt;&lt;br&gt;&lt;/span&gt;&lt;/div&gt;" style="text;html=1;align=center;verticalAlign=middle;resizable=0;points=[];autosize=1;strokeColor=none;fillColor=none;" vertex="1" parent="1">
          <mxGeometry x="-760" y="-1000" width="310" height="140" as="geometry" />
        </mxCell>
        <mxCell id="We_xGAvE_2kOFByAN-qr-20" value="User" style="swimlane;childLayout=stackLayout;horizontal=1;startSize=50;horizontalStack=0;rounded=1;fontSize=14;fontStyle=0;strokeWidth=2;resizeParent=0;resizeLast=1;shadow=0;align=center;arcSize=4;whiteSpace=wrap;html=1;" vertex="1" parent="1">
          <mxGeometry x="-480" y="-600" width="160" height="160" as="geometry" />
        </mxCell>
        <mxCell id="We_xGAvE_2kOFByAN-qr-21" value="- ID: GUID&lt;br&gt;+ UserName: String&lt;br&gt;+ FirstName: String&lt;br&gt;&amp;nbsp;&amp;nbsp;" style="align=left;strokeColor=default;fillColor=none;spacingLeft=4;fontSize=12;verticalAlign=top;resizable=0;rotatable=0;part=1;html=1;" vertex="1" parent="We_xGAvE_2kOFByAN-qr-20">
          <mxGeometry y="50" width="160" height="110" as="geometry" />
        </mxCell>
        <mxCell id="We_xGAvE_2kOFByAN-qr-23" value="Account" style="swimlane;childLayout=stackLayout;horizontal=1;startSize=50;horizontalStack=0;rounded=1;fontSize=14;fontStyle=0;strokeWidth=2;resizeParent=0;resizeLast=1;shadow=0;align=center;arcSize=4;whiteSpace=wrap;html=1;" vertex="1" parent="1">
          <mxGeometry x="-777.5" y="-620" width="195" height="200" as="geometry" />
        </mxCell>
        <mxCell id="We_xGAvE_2kOFByAN-qr-24" value="+ ID: GUID&lt;br&gt;+ Name: String&lt;br&gt;+ Type: String&lt;br&gt;+ Balance: Double&lt;br&gt;+ OffBudget: Boolean&amp;nbsp; &amp;nbsp; &amp;nbsp; &amp;nbsp;&amp;nbsp;&lt;br&gt;+ Transactions: List&amp;lt;Transaction&amp;gt;&lt;br&gt;&lt;br&gt;+ addAccount()&lt;br&gt;+ getAccounts()&lt;br&gt;&amp;nbsp;&amp;nbsp;" style="align=left;strokeColor=default;fillColor=none;spacingLeft=4;fontSize=12;verticalAlign=top;resizable=0;rotatable=0;part=1;html=1;" vertex="1" parent="We_xGAvE_2kOFByAN-qr-23">
          <mxGeometry y="50" width="195" height="150" as="geometry" />
        </mxCell>
        <mxCell id="We_xGAvE_2kOFByAN-qr-25" style="edgeStyle=orthogonalEdgeStyle;rounded=0;orthogonalLoop=1;jettySize=auto;html=1;entryX=1;entryY=0.5;entryDx=0;entryDy=0;" edge="1" parent="1" source="We_xGAvE_2kOFByAN-qr-21" target="We_xGAvE_2kOFByAN-qr-24">
          <mxGeometry relative="1" as="geometry" />
        </mxCell>
        <mxCell id="We_xGAvE_2kOFByAN-qr-26" value="1" style="text;html=1;align=center;verticalAlign=middle;resizable=0;points=[];autosize=1;strokeColor=none;fillColor=none;" vertex="1" parent="1">
          <mxGeometry x="-510" y="-522" width="30" height="30" as="geometry" />
        </mxCell>
        <mxCell id="We_xGAvE_2kOFByAN-qr-27" value="m" style="text;html=1;align=center;verticalAlign=middle;resizable=0;points=[];autosize=1;strokeColor=none;fillColor=none;" vertex="1" parent="1">
          <mxGeometry x="-590" y="-522" width="30" height="30" as="geometry" />
        </mxCell>
        <mxCell id="We_xGAvE_2kOFByAN-qr-28" value="Transaction" style="swimlane;childLayout=stackLayout;horizontal=1;startSize=50;horizontalStack=0;rounded=1;fontSize=14;fontStyle=0;strokeWidth=2;resizeParent=0;resizeLast=1;shadow=0;align=center;arcSize=4;whiteSpace=wrap;html=1;" vertex="1" parent="1">
          <mxGeometry x="-775" y="-322" width="190" height="160" as="geometry" />
        </mxCell>
        <mxCell id="We_xGAvE_2kOFByAN-qr-29" value="+ Name: String&lt;br&gt;+ Category: Category&lt;br&gt;+ Date: DateTime&lt;br&gt;+ Amount: Double&lt;br&gt;&lt;br&gt;+ addTransaction()&lt;br&gt;+ getTransactions()&lt;br&gt;&lt;br&gt;&lt;br&gt;&amp;nbsp;&amp;nbsp;" style="align=left;strokeColor=default;fillColor=none;spacingLeft=4;fontSize=12;verticalAlign=top;resizable=0;rotatable=0;part=1;html=1;" vertex="1" parent="We_xGAvE_2kOFByAN-qr-28">
          <mxGeometry y="50" width="190" height="110" as="geometry" />
        </mxCell>
        <mxCell id="We_xGAvE_2kOFByAN-qr-30" style="edgeStyle=orthogonalEdgeStyle;rounded=0;orthogonalLoop=1;jettySize=auto;html=1;entryX=0.5;entryY=0;entryDx=0;entryDy=0;" edge="1" parent="1" source="We_xGAvE_2kOFByAN-qr-24" target="We_xGAvE_2kOFByAN-qr-28">
          <mxGeometry relative="1" as="geometry" />
        </mxCell>
        <mxCell id="We_xGAvE_2kOFByAN-qr-31" value="1" style="text;html=1;align=center;verticalAlign=middle;resizable=0;points=[];autosize=1;strokeColor=none;fillColor=none;" vertex="1" parent="1">
          <mxGeometry x="-685" y="-420" width="30" height="30" as="geometry" />
        </mxCell>
        <mxCell id="We_xGAvE_2kOFByAN-qr-32" value="m" style="text;html=1;align=center;verticalAlign=middle;resizable=0;points=[];autosize=1;strokeColor=none;fillColor=none;" vertex="1" parent="1">
          <mxGeometry x="-685" y="-352" width="30" height="30" as="geometry" />
        </mxCell>
        <mxCell id="We_xGAvE_2kOFByAN-qr-34" value="Category" style="swimlane;childLayout=stackLayout;horizontal=1;startSize=50;horizontalStack=0;rounded=1;fontSize=14;fontStyle=0;strokeWidth=2;resizeParent=0;resizeLast=1;shadow=0;align=center;arcSize=4;whiteSpace=wrap;html=1;" vertex="1" parent="1">
          <mxGeometry x="-495" y="-322" width="190" height="160" as="geometry" />
        </mxCell>
        <mxCell id="We_xGAvE_2kOFByAN-qr-35" value="+ ID: GUID&lt;br&gt;+ Name: String&lt;br&gt;&lt;br&gt;+ addCategory()&lt;br&gt;+ getCategories()&lt;br&gt;&lt;br&gt;&lt;br&gt;&amp;nbsp;&amp;nbsp;" style="align=left;strokeColor=default;fillColor=none;spacingLeft=4;fontSize=12;verticalAlign=top;resizable=0;rotatable=0;part=1;html=1;" vertex="1" parent="We_xGAvE_2kOFByAN-qr-34">
          <mxGeometry y="50" width="190" height="110" as="geometry" />
        </mxCell>
        <mxCell id="We_xGAvE_2kOFByAN-qr-39" style="edgeStyle=orthogonalEdgeStyle;rounded=0;orthogonalLoop=1;jettySize=auto;html=1;entryX=0.5;entryY=0;entryDx=0;entryDy=0;" edge="1" parent="1" source="We_xGAvE_2kOFByAN-qr-21" target="We_xGAvE_2kOFByAN-qr-34">
          <mxGeometry relative="1" as="geometry" />
        </mxCell>
        <mxCell id="We_xGAvE_2kOFByAN-qr-40" value="1" style="text;html=1;align=center;verticalAlign=middle;resizable=0;points=[];autosize=1;strokeColor=none;fillColor=none;" vertex="1" parent="1">
          <mxGeometry x="-405" y="-440" width="30" height="30" as="geometry" />
        </mxCell>
        <mxCell id="We_xGAvE_2kOFByAN-qr-41" value="m" style="text;html=1;align=center;verticalAlign=middle;resizable=0;points=[];autosize=1;strokeColor=none;fillColor=none;" vertex="1" parent="1">
          <mxGeometry x="-405" y="-352" width="30" height="30" as="geometry" />
        </mxCell>
        <mxCell id="We_xGAvE_2kOFByAN-qr-42" style="edgeStyle=orthogonalEdgeStyle;rounded=0;orthogonalLoop=1;jettySize=auto;html=1;exitX=1;exitY=0.25;exitDx=0;exitDy=0;entryX=0;entryY=0.25;entryDx=0;entryDy=0;" edge="1" parent="1" source="We_xGAvE_2kOFByAN-qr-29" target="We_xGAvE_2kOFByAN-qr-35">
          <mxGeometry relative="1" as="geometry" />
        </mxCell>
        <mxCell id="We_xGAvE_2kOFByAN-qr-43" value="1" style="text;html=1;align=center;verticalAlign=middle;resizable=0;points=[];autosize=1;strokeColor=none;fillColor=none;" vertex="1" parent="1">
          <mxGeometry x="-585" y="-272" width="30" height="30" as="geometry" />
        </mxCell>
        <mxCell id="We_xGAvE_2kOFByAN-qr-44" value="1" style="text;html=1;align=center;verticalAlign=middle;resizable=0;points=[];autosize=1;strokeColor=none;fillColor=none;" vertex="1" parent="1">
          <mxGeometry x="-525" y="-272" width="30" height="30" as="geometry" />
        </mxCell>
        <mxCell id="We_xGAvE_2kOFByAN-qr-45" value="Budget" style="swimlane;childLayout=stackLayout;horizontal=1;startSize=50;horizontalStack=0;rounded=1;fontSize=14;fontStyle=0;strokeWidth=2;resizeParent=0;resizeLast=1;shadow=0;align=center;arcSize=4;whiteSpace=wrap;html=1;" vertex="1" parent="1">
          <mxGeometry x="-210" y="-600" width="160" height="160" as="geometry" />
        </mxCell>
        <mxCell id="We_xGAvE_2kOFByAN-qr-46" value="+ Month: String&lt;br&gt;+ AmountBudgeted: Double&lt;br&gt;+ AmountLeft: Double&lt;br&gt;&lt;br&gt;&amp;nbsp;&amp;nbsp;" style="align=left;strokeColor=default;fillColor=none;spacingLeft=4;fontSize=12;verticalAlign=top;resizable=0;rotatable=0;part=1;html=1;" vertex="1" parent="We_xGAvE_2kOFByAN-qr-45">
          <mxGeometry y="50" width="160" height="110" as="geometry" />
        </mxCell>
        <mxCell id="We_xGAvE_2kOFByAN-qr-47" value="1" style="text;html=1;align=center;verticalAlign=middle;resizable=0;points=[];autosize=1;strokeColor=none;fillColor=none;" vertex="1" parent="1">
          <mxGeometry x="-320" y="-522" width="30" height="30" as="geometry" />
        </mxCell>
        <mxCell id="We_xGAvE_2kOFByAN-qr-48" style="edgeStyle=orthogonalEdgeStyle;rounded=0;orthogonalLoop=1;jettySize=auto;html=1;entryX=0;entryY=0.5;entryDx=0;entryDy=0;" edge="1" parent="1" source="We_xGAvE_2kOFByAN-qr-21" target="We_xGAvE_2kOFByAN-qr-46">
          <mxGeometry relative="1" as="geometry" />
        </mxCell>
        <mxCell id="We_xGAvE_2kOFByAN-qr-49" value="m" style="text;html=1;align=center;verticalAlign=middle;resizable=0;points=[];autosize=1;strokeColor=none;fillColor=none;" vertex="1" parent="1">
          <mxGeometry x="-245" y="-522" width="30" height="30" as="geometry" />
        </mxCell>
      </root>
    </mxGraphModel>
  </diagram>
</mxfile>
